<svg xmlns="http://www.w3.org/2000/svg" viewBox="0 0 120 120" width="120" height="120" role="img" aria-label="Quickslip logo">
  <!-- Original mark: a receipt slip with a torn edge and a bolt-fast checkline -->
  <rect x="0" y="0" width="120" height="120" rx="26" fill="#0e7c5b"/>
  <path d="M38 24 h44 a4 4 0 0 1 4 4 v56 l-6.5 6 -6.5 -6 -6.5 6 -6.5 -6 -6.5 6 -6.5 -6 -6.5 6 -6.5 -6 V28 a4 4 0 0 1 4-4 z" fill="#fffdf8"/>
  <rect x="44" y="36" width="24" height="5" rx="2.5" fill="#0e7c5b" opacity=".85"/>
  <rect x="44" y="48" width="32" height="5" rx="2.5" fill="#9db8ae"/>
  <rect x="44" y="60" width="28" height="5" rx="2.5" fill="#9db8ae"/>
  <path d="M44 74 h18" stroke="#0e7c5b" stroke-width="5" stroke-linecap="round"/>
  <path d="M68 76 l5 5 9 -11" stroke="#f4a825" stroke-width="6" stroke-linecap="round" stroke-linejoin="round" fill="none"/>
</svg>
